<?xml version="1.0" encoding="UTF-8"?>
<!DOCTYPE svg PUBLIC "-//W3C//DTD SVG 1.1//EN" "http://www.w3.org/Graphics/SVG/1.1/DTD/svg11.dtd">
<svg xmlns="http://www.w3.org/2000/svg" version="1.1" width="2827px" height="1074px" style="shape-rendering:geometricPrecision; text-rendering:geometricPrecision; image-rendering:optimizeQuality; fill-rule:evenodd; clip-rule:evenodd" xmlns:xlink="http://www.w3.org/1999/xlink">
<g><path style="opacity:1" fill="#fffefe" d="M -0.5,-0.5 C 941.833,-0.5 1884.17,-0.5 2826.5,-0.5C 2826.5,357.5 2826.5,715.5 2826.5,1073.5C 2783.5,1073.5 2740.5,1073.5 2697.5,1073.5C 2699.17,1053.8 2701.17,1034.14 2703.5,1014.5C 2703.21,1011.52 2701.55,1010.18 2698.5,1010.5C 2688.17,1012.08 2677.83,1013.25 2667.5,1014C 2667.5,1006 2667.5,998 2667.5,990C 2679.76,976.988 2688.76,961.321 2694.5,943C 2696.42,939.92 2697.92,937.087 2699,934.5C 2715.69,889.564 2731.53,845.064 2746.5,801C 2746.17,800.667 2745.83,800.333 2745.5,800C 2749.44,788.579 2752.44,776.912 2754.5,765C 2753.15,763.043 2753.48,761.043 2755.5,759C 2754.95,757.602 2754.62,756.268 2754.5,755C 2755.17,751.667 2755.83,748.333 2756.5,745C 2756.18,736.984 2756.18,728.984 2756.5,721C 2755.83,719.333 2755.17,717.667 2754.5,716C 2754.98,712.527 2754.98,708.861 2754.5,705C 2753.83,704.333 2753.17,703.667 2752.5,703C 2752.67,700.593 2752.67,698.26 2752.5,696C 2746.72,675.031 2736.72,655.531 2722.5,637.5C 2725.37,632.006 2727.37,626.506 2728.5,621C 2728.84,616.462 2728.84,612.128 2728.5,608C 2730.15,605.753 2730.49,603.42 2729.5,601C 2731.01,597.661 2731.35,594.661 2730.5,592C 2731.06,586.728 2732.06,581.395 2733.5,576C 2733.17,575 2732.83,574 2732.5,573C 2733.17,570.667 2733.83,568.333 2734.5,566C 2734.73,561.398 2734.73,557.064 2734.5,553C 2735.17,550.333 2735.83,547.667 2736.5,545C 2736.73,540.398 2736.73,536.064 2736.5,532C 2737.92,525.231 2738.92,518.231 2739.5,511C 2739.17,510 2738.83,509 2738.5,508C 2739.17,505 2739.83,502 2740.5,499C 2740.17,498 2739.83,497 2739.5,496C 2740.17,492.667 2740.83,489.333 2741.5,486C 2741.58,484.093 2741.25,482.093 2740.5,480C 2741.17,477.333 2741.83,474.667 2742.5,472C 2742.17,469.667 2741.83,467.333 2741.5,465C 2742.17,461 2742.83,457 2743.5,453C 2743.73,443.514 2743.73,434.18 2743.5,425C 2744.17,420.667 2744.83,416.333 2745.5,412C 2745,394.5 2745,376.5 2745.5,358C 2744.83,353.667 2744.17,349.333 2743.5,345C 2743.51,330.575 2738.01,316.741 2727,303.5C 2718.28,294.83 2707.95,290.497 2696,290.5C 2677.82,286.352 2659.66,286.519 2641.5,291C 2626.49,295.014 2615.32,303.847 2608,317.5C 2578.02,285.963 2543.18,279.129 2503.5,297C 2480.29,305.871 2465.12,322.037 2458,345.5C 2428.94,326.616 2398.44,322.116 2366.5,332C 2328.46,348.477 2311.63,375.977 2316,414.5C 2302.59,408.082 2288.92,405.748 2275,407.5C 2254.97,411.399 2235.8,417.899 2217.5,427C 2203.78,436.385 2193.28,448.552 2186,463.5C 2177.22,481.202 2172.05,499.369 2170.5,518C 2170.56,528.015 2170.56,538.015 2170.5,548C 2176.4,617.378 2189.07,684.711 2208.5,750C 2223.4,807.364 2240.9,864.197 2261,920.5C 2268.93,944.373 2281.93,965.04 2300,982.5C 2299.62,990.618 2300.12,998.785 2301.5,1007C 2300.62,1008.36 2300.29,1009.86 2300.5,1011.5C 2295.51,1010.78 2290.51,1010.61 2285.5,1011C 2283.59,1015.3 2283.09,1019.8 2284,1024.5C 2286.36,1040.88 2288.86,1057.21 2291.5,1073.5C 2179.5,1073.5 2067.5,1073.5 1955.5,1073.5C 1957.95,1056.5 1960.45,1039.5 1963,1022.5C 1963.67,1019.17 1963.67,1015.83 1963,1012.5C 1960.54,1011.11 1957.87,1010.45 1955,1010.5C 1947.13,1011.04 1939.3,1011.71 1931.5,1012.5C 1930.69,1012.19 1930.03,1011.69 1929.5,1011C 1929.69,1006.9 1929.69,1002.74 1929.5,998.5C 1934.37,993.788 1938.54,988.455 1942,982.5C 1943.22,979.006 1944.72,975.673 1946.5,972.5C 1945.1,971.158 1945.43,970.324 1947.5,970C 1947.17,969.667 1946.83,969.333 1946.5,969C 1947.98,966.441 1949.31,963.774 1950.5,961C 1950.17,960 1949.83,959 1949.5,958C 1951.3,957.683 1951.63,957.016 1950.5,956C 1953.32,946.712 1955.99,937.378 1958.5,928C 1958.17,927.667 1957.83,927.333 1957.5,927C 1959.67,918.402 1961.67,910.069 1963.5,902C 1963.17,901.667 1962.83,901.333 1962.5,901C 1963.91,897.613 1964.91,894.28 1965.5,891C 1965.5,888.667 1965.5,886.333 1965.5,884C 1966.17,882.667 1966.83,881.333 1967.5,880C 1966.15,878.043 1966.48,876.043 1968.5,874C 1968.17,873.667 1967.83,873.333 1967.5,873C 1968.17,871.333 1968.83,869.667 1969.5,868C 1969.5,865.667 1969.5,863.333 1969.5,861C 1972.09,848.024 1974.76,835.357 1977.5,823C 1976.79,821.657 1977.12,820.324 1978.5,819C 1978.5,816.667 1978.5,814.333 1978.5,812C 1980.15,809.753 1980.49,807.42 1979.5,805C 1981.3,804.683 1981.63,804.016 1980.5,803C 1982.52,800.957 1982.85,798.957 1981.5,797C 1983.12,796.147 1983.46,795.147 1982.5,794C 1985.43,784.395 1987.1,775.061 1987.5,766C 1988.56,760.966 1989.56,755.633 1990.5,750C 1990.43,737.942 1990.43,725.609 1990.5,713C 1989.83,711.333 1989.17,709.667 1988.5,708C 1989.46,704.939 1989.13,701.606 1987.5,698C 1988.46,696.853 1988.12,695.853 1986.5,695C 1986.96,694.586 1987.29,694.086 1987.5,693.5C 1983.92,675.129 1976.42,657.129 1965,639.5C 1958.27,631.278 1951.43,623.278 1944.5,615.5C 1944.82,607.325 1944.82,598.825 1944.5,590C 1945.17,582.333 1945.83,574.667 1946.5,567C 1946.59,494.663 1946.26,418.33 1945.5,338C 1946.17,328.667 1946.83,319.333 1947.5,310C 1947.16,298.989 1946.82,288.322 1946.5,278C 1947.17,272 1947.83,266 1948.5,260C 1947.53,246.984 1947.87,232.651 1949.5,217C 1948.95,195.965 1948.95,172.965 1949.5,148C 1944.74,110.531 1924.24,91.3646 1888,90.5C 1866.06,93.8236 1851.56,105.657 1844.5,126C 1844.83,126.333 1845.17,126.667 1845.5,127C 1843.16,133.785 1841.49,140.451 1840.5,147C 1840.83,148 1841.17,149 1841.5,150C 1840.83,152.333 1840.17,154.667 1839.5,157C 1839.5,162 1839.5,167 1839.5,172C 1838.83,174.667 1838.17,177.333 1837.5,180C 1837.83,181 1838.17,182 1838.5,183C 1837.83,185.667 1837.17,188.333 1836.5,191C 1836.83,192 1837.17,193 1837.5,194C 1836.83,196.667 1836.17,199.333 1835.5,202C 1835.27,206.602 1835.27,210.936 1835.5,215C 1833.98,218.955 1833.64,222.622 1834.5,226C 1833.83,228.333 1833.17,230.667 1832.5,233C 1832.83,234 1833.17,235 1833.5,236C 1832.83,238.667 1832.17,241.333 1831.5,244C 1831.62,245.268 1831.95,246.602 1832.5,248C 1831.83,250.333 1831.17,252.667 1830.5,255C 1830.83,256 1831.17,257 1831.5,258C 1830.83,260.667 1830.17,263.333 1829.5,266C 1829.83,266.333 1830.17,266.667 1830.5,267C 1829.19,274.039 1828.36,281.206 1828,288.5C 1827.75,286.567 1827.25,284.734 1826.5,283C 1826.75,263.898 1827.08,243.898 1827.5,223C 1826.83,212 1826.17,201 1825.5,190C 1825.97,150.805 1825.97,109.805 1825.5,67C 1824.24,65.2949 1823.9,63.6282 1824.5,62C 1822.88,61.1475 1822.54,60.1475 1823.5,59C 1819.77,45.9258 1810.77,36.9258 1796.5,32C 1781.31,28.4198 1766.47,27.9198 1752,30.5C 1739.54,30.7021 1727.37,34.5355 1715.5,42C 1709.45,47.26 1705.28,53.76 1703,61.5C 1700.85,70.5577 1699.35,79.391 1698.5,88C 1699.21,92.1249 1699.54,96.1249 1699.5,100C 1698.04,110.076 1697.04,120.076 1696.5,130C 1696.83,132.333 1697.17,134.667 1697.5,137C 1696.83,140.667 1696.17,144.333 1695.5,148C 1695.45,155.939 1695.45,163.939 1695.5,172C 1694.83,175.667 1694.17,179.333 1693.5,183C 1693.83,184.667 1694.17,186.333 1694.5,188C 1693.83,192.333 1693.17,196.667 1692.5,201C 1692.5,208.667 1692.5,216.333 1692.5,224C 1691.83,228 1691.17,232 1690.5,236C 1690.43,238.176 1690.76,240.176 1691.5,242C 1691.04,251.969 1690.04,261.969 1688.5,272C 1689.24,273.824 1689.57,275.824 1689.5,278C 1688.52,285.007 1687.69,291.507 1687,297.5C 1686.79,293.911 1686.29,290.411 1685.5,287C 1686.58,281.249 1686.25,274.916 1684.5,268C 1684.83,264.333 1685.17,260.667 1685.5,257C 1684.83,255.333 1684.17,253.667 1683.5,252C 1684.38,248.457 1684.71,245.124 1684.5,242C 1683.83,238.667 1683.17,235.333 1682.5,232C 1682.78,222.853 1682.78,213.519 1682.5,204C 1681.83,201 1681.17,198 1680.5,195C 1681.3,191.847 1681.63,188.847 1681.5,186C 1680.58,175.704 1679.58,165.371 1678.5,155C 1679.46,150.636 1679.13,145.636 1677.5,140C 1677.83,130.459 1677.83,120.792 1677.5,111C 1676.56,102.609 1674.73,94.7762 1672,87.5C 1663.35,74.1965 1651.35,66.8631 1636,65.5C 1629.39,65.6344 1623.06,65.6344 1617,65.5C 1600.42,67.143 1584.92,72.643 1570.5,82C 1558.71,92.5826 1552.37,105.583 1551.5,121C 1550.33,127.359 1549.33,134.026 1548.5,141C 1549.2,143.785 1549.53,146.452 1549.5,149C 1548.83,155 1548.17,161 1547.5,167C 1548.23,170.173 1548.57,173.506 1548.5,177C 1547.83,181.667 1547.17,186.333 1546.5,191C 1546.22,206.825 1546.22,221.825 1546.5,236C 1545.83,244.667 1545.17,253.333 1544.5,262C 1544.79,270.306 1545.12,278.972 1545.5,288C 1544.83,296.667 1544.17,305.333 1543.5,314C 1543.69,339.791 1543.69,366.458 1543.5,394C 1542.7,397.745 1542.2,401.579 1542,405.5C 1540.44,393.084 1538.27,380.584 1535.5,368C 1535.83,367.667 1536.17,367.333 1536.5,367C 1535.83,365.333 1535.17,363.667 1534.5,362C 1534.83,361.667 1535.17,361.333 1535.5,361C 1534.83,359.333 1534.17,357.667 1533.5,356C 1533.5,353.333 1533.5,350.667 1533.5,348C 1532.71,344.282 1531.71,340.616 1530.5,337C 1531.48,335.221 1531.15,333.555 1529.5,332C 1530.05,330.602 1530.38,329.268 1530.5,328C 1529.5,324.333 1528.5,320.667 1527.5,317C 1528.85,315.043 1528.52,313.043 1526.5,311C 1526.96,308.249 1526.96,305.249 1526.5,302C 1525.83,300.667 1525.17,299.333 1524.5,298C 1525.85,296.043 1525.52,294.043 1523.5,292C 1523.59,288.604 1523.59,285.27 1523.5,282C 1522.83,280.333 1522.17,278.667 1521.5,277C 1521.83,276.667 1522.17,276.333 1522.5,276C 1521.83,274 1521.17,272 1520.5,270C 1520.5,267.333 1520.5,264.667 1520.5,262C 1519.17,256 1517.83,250 1516.5,244C 1517.85,242.043 1517.52,240.043 1515.5,238C 1515.94,218.921 1508.61,202.088 1493.5,187.5C 1490.37,184.868 1486.87,182.868 1483,181.5C 1460.22,178.327 1441.22,186.66 1426,206.5C 1419.87,218.884 1416.04,231.717 1414.5,245C 1414,251.505 1414,257.838 1414.5,264C 1413.83,267.333 1413.17,270.667 1412.5,274C 1413.36,278.057 1413.69,282.39 1413.5,287C 1412.83,293 1412.17,299 1411.5,305C 1412.03,330.737 1412.03,356.404 1411.5,382C 1412.01,410.808 1413.01,438.808 1414.5,466C 1414.59,470.566 1414.26,475.233 1413.5,480C 1414.17,486.333 1414.83,492.667 1415.5,499C 1415.32,503.402 1414.99,507.402 1414.5,511C 1415.17,517.667 1415.83,524.333 1416.5,531C 1416.57,534.494 1416.23,537.827 1415.5,541C 1416.17,547.667 1416.83,554.333 1417.5,561C 1416.57,568.904 1416.9,577.904 1418.5,588C 1417.8,590.785 1417.47,593.452 1417.5,596C 1418.17,602 1418.83,608 1419.5,614C 1418.8,616.785 1418.47,619.452 1418.5,622C 1419.17,627.333 1419.83,632.667 1420.5,638C 1419.8,640.785 1419.47,643.452 1419.5,646C 1420.96,659.221 1421.96,672.221 1422.5,685C 1422.17,687.333 1421.83,689.667 1421.5,692C 1422.17,697.333 1422.83,702.667 1423.5,708C 1423.65,710.769 1423.31,713.769 1422.5,717C 1423.17,725 1423.83,733 1424.5,741C 1424.19,771.871 1430.35,803.704 1443,836.5C 1456.07,863.651 1471.9,888.984 1490.5,912.5C 1501.15,924.326 1513.15,934.493 1526.5,943C 1526.17,944 1525.83,945 1525.5,946C 1526.17,949 1526.83,952 1527.5,955C 1527.17,956 1526.83,957 1526.5,958C 1527.92,969.324 1529.25,980.657 1530.5,992C 1515.26,990.656 1500.1,988.489 1485,985.5C 1482.14,985.34 1480.64,986.673 1480.5,989.5C 1486.17,1017.51 1491.84,1045.51 1497.5,1073.5C 998.167,1073.5 498.833,1073.5 -0.5,1073.5C -0.5,715.5 -0.5,357.5 -0.5,-0.5 Z"/></g>
<g><path style="opacity:1" fill="#39233e" d="M 1955.5,1073.5 C 1802.83,1073.5 1650.17,1073.5 1497.5,1073.5C 1491.84,1045.51 1486.17,1017.51 1480.5,989.5C 1480.64,986.673 1482.14,985.34 1485,985.5C 1500.1,988.489 1515.26,990.656 1530.5,992C 1529.25,980.657 1527.92,969.324 1526.5,958C 1526.83,957 1527.17,956 1527.5,955C 1526.83,952 1526.17,949 1525.5,946C 1525.83,945 1526.17,944 1526.5,943C 1513.15,934.493 1501.15,924.326 1490.5,912.5C 1471.9,888.984 1456.07,863.651 1443,836.5C 1430.35,803.704 1424.19,771.871 1424.5,741C 1423.83,733 1423.17,725 1422.5,717C 1423.31,713.769 1423.65,710.769 1423.5,708C 1422.83,702.667 1422.17,697.333 1421.5,692C 1421.83,689.667 1422.17,687.333 1422.5,685C 1421.96,672.221 1420.96,659.221 1419.5,646C 1419.47,643.452 1419.8,640.785 1420.5,638C 1419.83,632.667 1419.17,627.333 1418.5,622C 1418.47,619.452 1418.8,616.785 1419.5,614C 1418.83,608 1418.17,602 1417.5,596C 1417.47,593.452 1417.8,590.785 1418.5,588C 1416.9,577.904 1416.57,568.904 1417.5,561C 1416.83,554.333 1416.17,547.667 1415.5,541C 1416.23,537.827 1416.57,534.494 1416.5,531C 1415.83,524.333 1415.17,517.667 1414.5,511C 1414.99,507.402 1415.32,503.402 1415.5,499C 1414.83,492.667 1414.17,486.333 1413.5,480C 1414.26,475.233 1414.59,470.566 1414.5,466C 1413.01,438.808 1412.01,410.808 1411.5,382C 1412.03,356.404 1412.03,330.737 1411.5,305C 1412.17,299 1412.83,293 1413.5,287C 1413.69,282.39 1413.36,278.057 1412.5,274C 1413.17,270.667 1413.83,267.333 1414.5,264C 1414,257.838 1414,251.505 1414.5,245C 1416.04,231.717 1419.87,218.884 1426,206.5C 1441.22,186.66 1460.22,178.327 1483,181.5C 1486.87,182.868 1490.37,184.868 1493.5,187.5C 1508.61,202.088 1515.94,218.921 1515.5,238C 1517.52,240.043 1517.85,242.043 1516.5,244C 1517.83,250 1519.17,256 1520.5,262C 1520.5,264.667 1520.5,267.333 1520.5,270C 1521.17,272 1521.83,274 1522.5,276C 1522.17,276.333 1521.83,276.667 1521.5,277C 1522.17,278.667 1522.83,280.333 1523.5,282C 1523.59,285.27 1523.59,288.604 1523.5,292C 1525.52,294.043 1525.85,296.043 1524.5,298C 1525.17,299.333 1525.83,300.667 1526.5,302C 1526.96,305.249 1526.96,308.249 1526.5,311C 1528.52,313.043 1528.85,315.043 1527.5,317C 1528.5,320.667 1529.5,324.333 1530.5,328C 1530.38,329.268 1530.05,330.602 1529.5,332C 1531.15,333.555 1531.48,335.221 1530.5,337C 1531.71,340.616 1532.71,344.282 1533.5,348C 1533.5,350.667 1533.5,353.333 1533.5,356C 1534.17,357.667 1534.83,359.333 1535.5,361C 1535.17,361.333 1534.83,361.667 1534.5,362C 1535.17,363.667 1535.83,365.333 1536.5,367C 1536.17,367.333 1535.83,367.667 1535.5,368C 1538.27,380.584 1540.44,393.084 1542,405.5C 1542.2,401.579 1542.7,397.745 1543.5,394C 1543.69,366.458 1543.69,339.791 1543.5,314C 1544.17,305.333 1544.83,296.667 1545.5,288C 1545.12,278.972 1544.79,270.306 1544.5,262C 1545.17,253.333 1545.83,244.667 1546.5,236C 1546.22,221.825 1546.22,206.825 1546.5,191C 1547.17,186.333 1547.83,181.667 1548.5,177C 1548.57,173.506 1548.23,170.173 1547.5,167C 1548.17,161 1548.83,155 1549.5,149C 1549.53,146.452 1549.2,143.785 1548.5,141C 1549.33,134.026 1550.33,127.359 1551.5,121C 1552.37,105.583 1558.71,92.5826 1570.5,82C 1584.92,72.643 1600.42,67.143 1617,65.5C 1623.06,65.6344 1629.39,65.6344 1636,65.5C 1651.35,66.8631 1663.35,74.1965 1672,87.5C 1674.73,94.7762 1676.56,102.609 1677.5,111C 1677.83,120.792 1677.83,130.459 1677.5,140C 1679.13,145.636 1679.46,150.636 1678.5,155C 1679.58,165.371 1680.58,175.704 1681.5,186C 1681.63,188.847 1681.3,191.847 1680.5,195C 1681.17,198 1681.83,201 1682.5,204C 1682.78,213.519 1682.78,222.853 1682.5,232C 1683.17,235.333 1683.83,238.667 1684.5,242C 1684.71,245.124 1684.38,248.457 1683.5,252C 1684.17,253.667 1684.83,255.333 1685.5,257C 1685.17,260.667 1684.83,264.333 1684.5,268C 1686.25,274.916 1686.58,281.249 1685.5,287C 1686.29,290.411 1686.79,293.911 1687,297.5C 1687.69,291.507 1688.52,285.007 1689.5,278C 1689.57,275.824 1689.24,273.824 1688.5,272C 1690.04,261.969 1691.04,251.969 1691.5,242C 1690.76,240.176 1690.43,238.176 1690.5,236C 1691.17,232 1691.83,228 1692.5,224C 1692.5,216.333 1692.5,208.667 1692.5,201C 1693.17,196.667 1693.83,192.333 1694.5,188C 1694.17,186.333 1693.83,184.667 1693.5,183C 1694.17,179.333 1694.83,175.667 1695.5,172C 1695.45,163.939 1695.45,155.939 1695.5,148C 1696.17,144.333 1696.83,140.667 1697.5,137C 1697.17,134.667 1696.83,132.333 1696.5,130C 1697.04,120.076 1698.04,110.076 1699.5,100C 1699.54,96.1249 1699.21,92.1249 1698.5,88C 1699.35,79.391 1700.85,70.5577 1703,61.5C 1705.28,53.76 1709.45,47.26 1715.5,42C 1727.37,34.5355 1739.54,30.7021 1752,30.5C 1766.47,27.9198 1781.31,28.4198 1796.5,32C 1810.77,36.9258 1819.77,45.9258 1823.5,59C 1822.54,60.1475 1822.88,61.1475 1824.5,62C 1823.9,63.6282 1824.24,65.2949 1825.5,67C 1825.97,109.805 1825.97,150.805 1825.5,190C 1826.17,201 1826.83,212 1827.5,223C 1827.08,243.898 1826.75,263.898 1826.5,283C 1827.25,284.734 1827.75,286.567 1828,288.5C 1828.36,281.206 1829.19,274.039 1830.5,267C 1830.17,266.667 1829.83,266.333 1829.5,266C 1830.17,263.333 1830.83,260.667 1831.5,258C 1831.17,257 1830.83,256 1830.5,255C 1831.17,252.667 1831.83,250.333 1832.5,248C 1831.95,246.602 1831.62,245.268 1831.5,244C 1832.17,241.333 1832.83,238.667 1833.5,236C 1833.17,235 1832.83,234 1832.5,233C 1833.17,230.667 1833.83,228.333 1834.5,226C 1833.64,222.622 1833.98,218.955 1835.5,215C 1835.27,210.936 1835.27,206.602 1835.5,202C 1836.17,199.333 1836.83,196.667 1837.5,194C 1837.17,193 1836.83,192 1836.5,191C 1837.17,188.333 1837.83,185.667 1838.5,183C 1838.17,182 1837.83,181 1837.5,180C 1838.17,177.333 1838.83,174.667 1839.5,172C 1839.5,167 1839.5,162 1839.5,157C 1840.17,154.667 1840.83,152.333 1841.5,150C 1841.17,149 1840.83,148 1840.5,147C 1841.49,140.451 1843.16,133.785 1845.5,127C 1845.17,126.667 1844.83,126.333 1844.5,126C 1851.56,105.657 1866.06,93.8236 1888,90.5C 1924.24,91.3646 1944.74,110.531 1949.5,148C 1948.95,172.965 1948.95,195.965 1949.5,217C 1947.87,232.651 1947.53,246.984 1948.5,260C 1947.83,266 1947.17,272 1946.5,278C 1946.82,288.322 1947.16,298.989 1947.5,310C 1946.83,319.333 1946.17,328.667 1945.5,338C 1946.26,418.33 1946.59,494.663 1946.5,567C 1945.83,574.667 1945.17,582.333 1944.5,590C 1944.82,598.825 1944.82,607.325 1944.5,615.5C 1951.43,623.278 1958.27,631.278 1965,639.5C 1976.42,657.129 1983.92,675.129 1987.5,693.5C 1987.29,694.086 1986.96,694.586 1986.5,695C 1988.12,695.853 1988.46,696.853 1987.5,698C 1989.13,701.606 1989.46,704.939 1988.5,708C 1989.17,709.667 1989.83,711.333 1990.5,713C 1990.43,725.609 1990.43,737.942 1990.5,750C 1989.56,755.633 1988.56,760.966 1987.5,766C 1987.1,775.061 1985.43,784.395 1982.5,794C 1983.46,795.147 1983.12,796.147 1981.5,797C 1982.85,798.957 1982.52,800.957 1980.5,803C 1981.63,804.016 1981.3,804.683 1979.5,805C 1980.49,807.42 1980.15,809.753 1978.5,812C 1978.5,814.333 1978.5,816.667 1978.5,819C 1977.12,820.324 1976.79,821.657 1977.5,823C 1974.76,835.357 1972.09,848.024 1969.5,861C 1969.5,863.333 1969.5,865.667 1969.5,868C 1968.83,869.667 1968.17,871.333 1967.5,873C 1967.83,873.333 1968.17,873.667 1968.5,874C 1966.48,876.043 1966.15,878.043 1967.5,880C 1966.83,881.333 1966.17,882.667 1965.5,884C 1965.5,886.333 1965.5,888.667 1965.5,891C 1964.91,894.28 1963.91,897.613 1962.5,901C 1962.83,901.333 1963.17,901.667 1963.5,902C 1961.67,910.069 1959.67,918.402 1957.5,927C 1957.83,927.333 1958.17,927.667 1958.5,928C 1955.99,937.378 1953.32,946.712 1950.5,956C 1951.63,957.016 1951.3,957.683 1949.5,958C 1949.83,959 1950.17,960 1950.5,961C 1949.31,963.774 1947.98,966.441 1946.5,969C 1946.83,969.333 1947.17,969.667 1947.5,970C 1945.43,970.324 1945.1,971.158 1946.5,972.5C 1944.72,975.673 1943.22,979.006 1942,982.5C 1938.54,988.455 1934.37,993.788 1929.5,998.5C 1929.69,1002.74 1929.69,1006.9 1929.5,1011C 1930.03,1011.69 1930.69,1012.19 1931.5,1012.5C 1939.3,1011.71 1947.13,1011.04 1955,1010.5C 1957.87,1010.45 1960.54,1011.11 1963,1012.5C 1963.67,1015.83 1963.67,1019.17 1963,1022.5C 1960.45,1039.5 1957.95,1056.5 1955.5,1073.5 Z"/></g>
<g><path style="opacity:1" fill="#f49979" d="M 1751.5,38.5 C 1757.91,38.6517 1764.41,38.6517 1771,38.5C 1772.33,39.1667 1773.67,39.8333 1775,40.5C 1784.45,41.1033 1792.45,46.1033 1799,55.5C 1802.45,62.2253 1804.61,68.7253 1805.5,75C 1806.01,125.451 1806.01,173.784 1805.5,220C 1806.17,237 1806.83,254 1807.5,271C 1807.17,292 1806.83,313 1806.5,334C 1807.17,351.667 1807.83,369.333 1808.5,387C 1807.42,420.204 1807.42,457.204 1808.5,498C 1810.52,498.45 1812.35,499.283 1814,500.5C 1817.88,499.9 1821.71,498.733 1825.5,497C 1826.13,496.25 1826.63,495.416 1827,494.5C 1827.33,494.833 1827.67,495.167 1828,495.5C 1828.96,491.658 1829.79,487.825 1830.5,484C 1830.69,479.092 1830.69,474.092 1830.5,469C 1831.17,466.667 1831.83,464.333 1832.5,462C 1832.17,461.667 1831.83,461.333 1831.5,461C 1832.17,457.667 1832.83,454.333 1833.5,451C 1833.5,447 1833.5,443 1833.5,439C 1834.17,436 1834.83,433 1835.5,430C 1835.17,429 1834.83,428 1834.5,427C 1835.17,424.667 1835.83,422.333 1836.5,420C 1836.5,415.333 1836.5,410.667 1836.5,406C 1837.17,403.667 1837.83,401.333 1838.5,399C 1838.17,398 1837.83,397 1837.5,396C 1838.17,393.333 1838.83,390.667 1839.5,388C 1838.65,385.339 1838.99,382.339 1840.5,379C 1839.95,377.602 1839.62,376.268 1839.5,375C 1840.95,368.266 1841.95,361.599 1842.5,355C 1841.71,352.209 1842.04,349.043 1843.5,345.5C 1843,344.284 1842.67,343.117 1842.5,342C 1844.5,325 1846.5,308 1848.5,291C 1848.17,290 1847.83,289 1847.5,288C 1848.98,282.141 1849.98,276.141 1850.5,270C 1850.57,264.728 1850.57,259.395 1850.5,254C 1852.21,251.098 1852.54,248.098 1851.5,245C 1852.17,243 1852.83,241 1853.5,239C 1853.66,233.279 1853.66,227.946 1853.5,223C 1854.17,221.333 1854.83,219.667 1855.5,218C 1855.17,215.667 1854.83,213.333 1854.5,211C 1855.17,210 1855.83,209 1856.5,208C 1855.51,204.281 1855.85,200.281 1857.5,196C 1857.17,195 1856.83,194 1856.5,193C 1857.07,186.431 1858.07,180.097 1859.5,174C 1859.31,169.996 1859.31,165.662 1859.5,161C 1860.17,158.667 1860.83,156.333 1861.5,154C 1861.08,149.476 1861.08,144.809 1861.5,140C 1863.51,138.209 1863.51,136.875 1861.5,136C 1862.17,135.667 1862.83,135.333 1863.5,135C 1863.71,125.603 1867.04,116.436 1873.5,107.5C 1876.32,104.488 1879.49,102.488 1883,101.5C 1885.67,102.833 1888.33,102.833 1891,101.5C 1891.33,102.167 1891.67,102.833 1892,103.5C 1893,103.167 1894,102.833 1895,102.5C 1895.92,104.632 1897.25,105.299 1899,104.5C 1915.39,113.253 1924.56,126.419 1926.5,144C 1927.83,149.278 1928.83,154.612 1929.5,160C 1928.57,176.465 1928.57,192.465 1929.5,208C 1928.83,215.667 1928.17,223.333 1927.5,231C 1927.4,237.788 1927.73,244.788 1928.5,252C 1927.83,257.667 1927.17,263.333 1926.5,269C 1926.83,276 1927.17,283 1927.5,290C 1926.83,300 1926.17,310 1925.5,320C 1925.66,405.6 1925.66,497.934 1925.5,597C 1924.93,598.604 1923.93,599.27 1922.5,599C 1880.17,571.833 1837.5,545.166 1794.5,519C 1775.15,507.876 1755.15,506.21 1734.5,514C 1719.62,521.937 1704.62,529.604 1689.5,537C 1649.36,553.639 1609.19,558.472 1569,551.5C 1564.93,551.633 1560.93,551.633 1557,551.5C 1531.23,555.883 1519.06,570.716 1520.5,596C 1523.94,612.875 1532.27,626.875 1545.5,638C 1568.59,654.128 1594.09,664.294 1622,668.5C 1626.33,669.5 1630.67,670.5 1635,671.5C 1645.35,671.384 1656.01,671.384 1667,671.5C 1671.06,670.078 1675.06,669.078 1679,668.5C 1680.02,669.634 1680.68,669.301 1681,667.5C 1681.33,668.167 1681.67,668.833 1682,669.5C 1684.09,668.206 1686.09,667.206 1688,666.5C 1689,666.833 1690,667.167 1691,667.5C 1691.33,666.833 1691.67,666.167 1692,665.5C 1695.46,665.938 1698.79,665.938 1702,665.5C 1703.32,664.12 1704.66,663.786 1706,664.5C 1708.33,663.5 1710.67,662.5 1713,661.5C 1713.33,661.833 1713.67,662.167 1714,662.5C 1716,662.004 1717.66,661.004 1719,659.5C 1721.18,659.428 1723.18,659.762 1725,660.5C 1727.76,657.998 1730.43,657.332 1733,658.5C 1733.67,657.833 1734.33,657.167 1735,656.5C 1737,656.5 1739,656.5 1741,656.5C 1742.48,654.219 1744.15,654.219 1746,656.5C 1747.02,655.366 1747.68,655.699 1748,657.5C 1748.33,657.167 1748.67,656.833 1749,656.5C 1760.8,664.657 1771.96,673.657 1782.5,683.5C 1735.25,735.918 1709.58,795.418 1705.5,862C 1707.34,865.007 1710,866.507 1713.5,866.5C 1715.54,865.99 1717.37,865.99 1719,866.5C 1719.32,864.699 1719.98,864.366 1721,865.5C 1721.91,864.672 1722.58,863.672 1723,862.5C 1723.33,862.833 1723.67,863.167 1724,863.5C 1724.83,861.833 1725.67,860.167 1726.5,858.5C 1726.79,838.817 1729.95,819.15 1736,799.5C 1749,760.06 1768.33,725.393 1794,695.5C 1803.67,705.167 1813.33,714.833 1823,724.5C 1824.02,723.366 1824.68,723.699 1825,725.5C 1826.67,724.833 1828.33,724.167 1830,723.5C 1831.15,724.458 1832.15,724.125 1833,722.5C 1833.33,722.833 1833.67,723.167 1834,723.5C 1836.85,720.881 1838.69,718.047 1839.5,715C 1819.08,690.249 1796.08,668.249 1770.5,649C 1762.12,642.868 1752.95,640.034 1743,640.5C 1717.93,646.861 1692.93,652.195 1668,656.5C 1658.28,656.425 1648.28,656.425 1638,656.5C 1618.55,653.256 1599.05,647.089 1579.5,638C 1565.46,630.957 1554.29,620.79 1546,607.5C 1544.03,601.695 1542.2,596.195 1540.5,591C 1540.61,587.779 1541.28,584.446 1542.5,581C 1542.62,573.997 1546.12,569.163 1553,566.5C 1558.47,567.112 1563.47,567.112 1568,566.5C 1570,567.167 1572,567.833 1574,568.5C 1575.58,568.507 1577.25,568.174 1579,567.5C 1580,568.167 1581,568.833 1582,569.5C 1583,568.167 1584,568.167 1585,569.5C 1585.67,566.833 1586.33,566.833 1587,569.5C 1594.59,568.676 1601.92,568.676 1609,569.5C 1613.59,567.964 1617.92,567.631 1622,568.5C 1624.73,567.937 1627.39,567.27 1630,566.5C 1633.4,566.59 1636.73,566.59 1640,566.5C 1644.13,565.426 1648.13,564.093 1652,562.5C 1653.39,563.815 1654.39,563.481 1655,561.5C 1655.69,563.891 1656.69,563.891 1658,561.5C 1658.33,561.833 1658.67,562.167 1659,562.5C 1666.09,560.351 1672.75,558.017 1679,555.5C 1680.02,556.634 1680.68,556.301 1681,554.5C 1681.33,554.833 1681.67,555.167 1682,555.5C 1684.67,554.167 1687.33,552.833 1690,551.5C 1690.33,551.833 1690.67,552.167 1691,552.5C 1708.76,544.479 1725.1,535.812 1740,526.5C 1743.19,526.77 1746.19,525.77 1749,523.5C 1749.33,523.833 1749.67,524.167 1750,524.5C 1753.51,522.567 1756.84,522.567 1760,524.5C 1762,524.5 1764,524.5 1766,524.5C 1796.58,541.66 1826.92,559.993 1857,579.5C 1875.95,589.957 1893.95,601.623 1911,614.5C 1941.34,634.928 1959.84,663.428 1966.5,700C 1968.8,708.427 1970.13,716.76 1970.5,725C 1969.17,730 1969.17,735 1970.5,740C 1969.83,744.333 1969.17,748.667 1968.5,753C 1968.83,754 1969.17,755 1969.5,756C 1965.33,782.951 1960,809.951 1953.5,837C 1953.83,837.333 1954.17,837.667 1954.5,838C 1951.51,851.859 1948.84,865.192 1946.5,878C 1942.23,910.916 1935.06,943.083 1925,974.5C 1921.03,986.427 1913.03,992.761 1901,993.5C 1893.22,995.404 1885.38,997.237 1877.5,999C 1871.31,1004.65 1871.81,1009.15 1879,1012.5C 1881.13,1012.21 1883.46,1011.54 1886,1010.5C 1887,1010.83 1888,1011.17 1889,1011.5C 1889.33,1010.83 1889.67,1010.17 1890,1009.5C 1894.53,1010.41 1899.2,1009.74 1904,1007.5C 1905.34,1008.21 1906.68,1007.88 1908,1006.5C 1909.35,1008.59 1909.85,1010.93 1909.5,1013.5C 1846.24,1018.03 1782.91,1019.53 1719.5,1018C 1663.42,1013.96 1607.75,1006.8 1552.5,996.5C 1550.67,994.702 1550.33,992.868 1551.5,991C 1550.5,985.333 1549.5,979.667 1548.5,974C 1548.43,971.824 1548.76,969.824 1549.5,968C 1548.65,964.076 1547.98,960.41 1547.5,957C 1548,956.5 1548.5,956 1549,955.5C 1564.98,964.841 1582.31,971.508 1601,975.5C 1606.36,975.418 1612.19,975.251 1618.5,975C 1622.3,973.699 1624.97,971.199 1626.5,967.5C 1624.59,963.113 1621.76,961.78 1618,963.5C 1599.24,960.911 1581.07,954.744 1563.5,945C 1531.19,928.57 1505.69,904.737 1487,873.5C 1469.64,847.495 1457.48,820.661 1450.5,793C 1450.83,792.667 1451.17,792.333 1451.5,792C 1449.94,786.421 1448.61,781.087 1447.5,776C 1447.83,775.667 1448.17,775.333 1448.5,775C 1447.94,769.728 1446.94,764.395 1445.5,759C 1445.83,758 1446.17,757 1446.5,756C 1445.83,754.667 1445.17,753.333 1444.5,752C 1445.26,748.572 1445.59,745.238 1445.5,742C 1444.83,739 1444.17,736 1443.5,733C 1443.41,719.666 1443.41,706.666 1443.5,694C 1442.83,690.333 1442.17,686.667 1441.5,683C 1441.44,678.843 1441.77,674.843 1442.5,671C 1441.83,667 1441.17,663 1440.5,659C 1440.43,655.506 1440.77,652.173 1441.5,649C 1440.83,644.667 1440.17,640.333 1439.5,636C 1440.43,628.096 1440.1,619.096 1438.5,609C 1439.36,605.614 1439.7,601.948 1439.5,598C 1438.83,593.667 1438.17,589.333 1437.5,585C 1437.39,580.866 1437.72,576.866 1438.5,573C 1437.83,568 1437.17,563 1436.5,558C 1436.34,553.239 1436.68,548.239 1437.5,543C 1436.83,538.333 1436.17,533.667 1435.5,529C 1435.83,524.667 1436.17,520.333 1436.5,516C 1435.83,509.667 1435.17,503.333 1434.5,497C 1434.42,477.776 1434.42,458.443 1434.5,439C 1433.83,433.333 1433.17,427.667 1432.5,422C 1433.18,409.494 1433.52,397.161 1433.5,385C 1432.83,374.667 1432.17,364.333 1431.5,354C 1431.51,339.995 1431.51,325.995 1431.5,312C 1432.17,304.667 1432.83,297.333 1433.5,290C 1433.17,287 1432.83,284 1432.5,281C 1433.17,275.667 1433.83,270.333 1434.5,265C 1434.38,263.732 1434.05,262.398 1433.5,261C 1434.86,254.493 1435.86,248.16 1436.5,242C 1436.72,230.175 1439.89,218.342 1446,206.5C 1451.76,198.722 1459.43,194.389 1469,193.5C 1480.23,199.742 1487.89,209.075 1492,221.5C 1493.78,226.064 1494.61,230.564 1494.5,235C 1505.66,310.334 1517.33,385.001 1529.5,459C 1529.17,459.333 1528.83,459.667 1528.5,460C 1529.17,461.667 1529.83,463.333 1530.5,465C 1530.17,465.333 1529.83,465.667 1529.5,466C 1531.17,474.333 1532.83,482.667 1534.5,491C 1534.17,491.333 1533.83,491.667 1533.5,492C 1534.5,495.667 1535.5,499.333 1536.5,503C 1536.17,503.333 1535.83,503.667 1535.5,504C 1536.92,508.056 1537.92,512.056 1538.5,516C 1537.79,517.343 1538.12,518.676 1539.5,520C 1544.27,521.79 1549.27,521.29 1554.5,518.5C 1555.85,517.315 1557.02,515.981 1558,514.5C 1558.22,511.574 1558.72,508.74 1559.5,506C 1559.9,497.545 1559.9,489.211 1559.5,481C 1560.17,478 1560.83,475 1561.5,472C 1560.74,467.233 1560.41,462.566 1560.5,458C 1561.17,452.667 1561.83,447.333 1562.5,442C 1562.17,437.667 1561.83,433.333 1561.5,429C 1562.17,422 1562.83,415 1563.5,408C 1562.71,400.565 1562.38,392.899 1562.5,385C 1563.17,378 1563.83,371 1564.5,364C 1563.67,351.253 1563.33,338.253 1563.5,325C 1564.17,316 1564.83,307 1565.5,298C 1565.14,287.659 1564.81,276.992 1564.5,266C 1565.17,258.333 1565.83,250.667 1566.5,243C 1566.55,236.464 1566.21,229.797 1565.5,223C 1566.17,217 1566.83,211 1567.5,205C 1566.79,200.207 1566.46,195.54 1566.5,191C 1567.99,179.593 1568.99,167.927 1569.5,156C 1569.25,146.274 1569.25,135.94 1569.5,125C 1570.17,123.667 1570.83,122.333 1571.5,121C 1571.82,107.387 1576.49,95.3874 1585.5,85C 1591.3,81.0835 1597.13,78.9168 1603,78.5C 1603.33,77.8333 1603.67,77.1667 1604,76.5C 1606.18,76.4284 1608.18,76.7617 1610,77.5C 1611.67,76.8333 1613.33,76.1667 1615,75.5C 1617.67,75.5 1620.33,75.5 1623,75.5C 1642.64,78.1441 1653.81,89.6441 1656.5,110C 1656.17,110.333 1655.83,110.667 1655.5,111C 1656.17,115.333 1656.83,119.667 1657.5,124C 1657.17,125.667 1656.83,127.333 1656.5,129C 1657.5,139.333 1658.5,149.667 1659.5,160C 1659.6,168.334 1659.6,176.334 1659.5,184C 1660.17,188.333 1660.83,192.667 1661.5,197C 1661.17,199.333 1660.83,201.667 1660.5,204C 1661.17,208 1661.83,212 1662.5,216C 1662.17,217.667 1661.83,219.333 1661.5,221C 1662.96,231.744 1663.96,242.411 1664.5,253C 1664.17,255.333 1663.83,257.667 1663.5,260C 1664.17,264 1664.83,268 1665.5,272C 1665.17,273.667 1664.83,275.333 1664.5,277C 1665.96,287.744 1666.96,298.411 1667.5,309C 1667.17,310.667 1666.83,312.333 1666.5,314C 1667.96,324.744 1668.96,335.411 1669.5,346C 1669.17,347.667 1668.83,349.333 1668.5,351C 1669.17,355.667 1669.83,360.333 1670.5,365C 1670.57,367.176 1670.24,369.176 1669.5,371C 1670.17,375.333 1670.83,379.667 1671.5,384C 1671.17,385.667 1670.83,387.333 1670.5,389C 1671.17,393.333 1671.83,397.667 1672.5,402C 1672.17,403.667 1671.83,405.333 1671.5,407C 1672.17,411.667 1672.83,416.333 1673.5,421C 1673.17,422.667 1672.83,424.333 1672.5,426C 1673.17,430.667 1673.83,435.333 1674.5,440C 1674.17,441.667 1673.83,443.333 1673.5,445C 1674.17,449.333 1674.83,453.667 1675.5,458C 1674.72,460.522 1674.39,463.189 1674.5,466C 1675.17,469.333 1675.83,472.667 1676.5,476C 1676.14,482.181 1676.14,488.848 1676.5,496C 1677.33,497.5 1678.5,498.667 1680,499.5C 1682.33,499.5 1684.67,499.5 1687,499.5C 1688.32,498.12 1689.66,497.786 1691,498.5C 1692.57,497.386 1693.9,496.053 1695,494.5C 1695.33,494.833 1695.67,495.167 1696,495.5C 1697.01,490.663 1697.85,485.83 1698.5,481C 1698.88,472.486 1698.88,464.153 1698.5,456C 1699.17,452.667 1699.83,449.333 1700.5,446C 1700.17,443 1699.83,440 1699.5,437C 1700.17,433 1700.83,429 1701.5,425C 1701.17,423.333 1700.83,421.667 1700.5,420C 1701.17,416 1701.83,412 1702.5,408C 1702.55,400.06 1702.55,392.06 1702.5,384C 1704.11,377.074 1704.44,371.074 1703.5,366C 1704.17,362.333 1704.83,358.667 1705.5,355C 1705.17,352.667 1704.83,350.333 1704.5,348C 1705.17,344.333 1705.83,340.667 1706.5,337C 1706.57,334.824 1706.24,332.824 1705.5,331C 1705.96,320.366 1706.96,309.699 1708.5,299C 1708.17,296.667 1707.83,294.333 1707.5,292C 1708.17,289 1708.83,286 1709.5,283C 1709.69,274.395 1709.69,266.062 1709.5,258C 1710.17,254.333 1710.83,250.667 1711.5,247C 1711.53,244.452 1711.2,241.785 1710.5,239C 1711.17,235 1711.83,231 1712.5,227C 1712.5,219.667 1712.5,212.333 1712.5,205C 1713.17,201.333 1713.83,197.667 1714.5,194C 1714.17,191 1713.83,188 1713.5,185C 1714.17,182 1714.83,179 1715.5,176C 1715.46,167.606 1715.46,159.273 1715.5,151C 1717.1,142.854 1717.44,135.521 1716.5,129C 1717.13,120.844 1718.13,112.511 1719.5,104C 1719.2,94.7622 1719.2,85.0956 1719.5,75C 1720.99,64.7359 1724.49,54.5693 1730,44.5C 1730.33,44.8333 1730.67,45.1667 1731,45.5C 1733.1,43.2616 1735.44,42.2616 1738,42.5C 1738.33,41.8333 1738.67,41.1667 1739,40.5C 1740.27,40.6158 1741.6,40.9491 1743,41.5C 1745.8,40.9795 1748.64,39.9795 1751.5,38.5 Z"/></g>
<g><path style="opacity:1" fill="#39233e" d="M 2697.5,1073.5 C 2562.17,1073.5 2426.83,1073.5 2291.5,1073.5C 2288.86,1057.21 2286.36,1040.88 2284,1024.5C 2283.09,1019.8 2283.59,1015.3 2285.5,1011C 2290.51,1010.61 2295.51,1010.78 2300.5,1011.5C 2300.29,1009.86 2300.62,1008.36 2301.5,1007C 2300.12,998.785 2299.62,990.618 2300,982.5C 2281.93,965.04 2268.93,944.373 2261,920.5C 2240.9,864.197 2223.4,807.364 2208.5,750C 2189.07,684.711 2176.4,617.378 2170.5,548C 2170.56,538.015 2170.56,528.015 2170.5,518C 2172.05,499.369 2177.22,481.202 2186,463.5C 2193.28,448.552 2203.78,436.385 2217.5,427C 2235.8,417.899 2254.97,411.399 2275,407.5C 2288.92,405.748 2302.59,408.082 2316,414.5C 2311.63,375.977 2328.46,348.477 2366.5,332C 2398.44,322.116 2428.94,326.616 2458,345.5C 2465.12,322.037 2480.29,305.871 2503.5,297C 2543.18,279.129 2578.02,285.963 2608,317.5C 2615.32,303.847 2626.49,295.014 2641.5,291C 2659.66,286.519 2677.82,286.352 2696,290.5C 2707.95,290.497 2718.28,294.83 2727,303.5C 2738.01,316.741 2743.51,330.575 2743.5,345C 2744.17,349.333 2744.83,353.667 2745.5,358C 2745,376.5 2745,394.5 2745.5,412C 2744.83,416.333 2744.17,420.667 2743.5,425C 2743.73,434.18 2743.73,443.514 2743.5,453C 2742.83,457 2742.17,461 2741.5,465C 2741.83,467.333 2742.17,469.667 2742.5,472C 2741.83,474.667 2741.17,477.333 2740.5,480C 2741.25,482.093 2741.58,484.093 2741.5,486C 2740.83,489.333 2740.17,492.667 2739.5,496C 2739.83,497 2740.17,498 2740.5,499C 2739.83,502 2739.17,505 2738.5,508C 2738.83,509 2739.17,510 2739.5,511C 2738.92,518.231 2737.92,525.231 2736.5,532C 2736.73,536.064 2736.73,540.398 2736.5,545C 2735.83,547.667 2735.17,550.333 2734.5,553C 2734.73,557.064 2734.73,561.398 2734.5,566C 2733.83,568.333 2733.17,570.667 2732.5,573C 2732.83,574 2733.17,575 2733.5,576C 2732.06,581.395 2731.06,586.728 2730.5,592C 2731.35,594.661 2731.01,597.661 2729.5,601C 2730.49,603.42 2730.15,605.753 2728.5,608C 2728.84,612.128 2728.84,616.462 2728.5,621C 2727.37,626.506 2725.37,632.006 2722.5,637.5C 2736.72,655.531 2746.72,675.031 2752.5,696C 2752.67,698.26 2752.67,700.593 2752.5,703C 2753.17,703.667 2753.83,704.333 2754.5,705C 2754.98,708.861 2754.98,712.527 2754.5,716C 2755.17,717.667 2755.83,719.333 2756.5,721C 2756.18,728.984 2756.18,736.984 2756.5,745C 2755.83,748.333 2755.17,751.667 2754.5,755C 2754.62,756.268 2754.95,757.602 2755.5,759C 2753.48,761.043 2753.15,763.043 2754.5,765C 2752.44,776.912 2749.44,788.579 2745.5,800C 2745.83,800.333 2746.17,800.667 2746.5,801C 2731.53,845.064 2715.69,889.564 2699,934.5C 2697.92,937.087 2696.42,939.92 2694.5,943C 2688.76,961.321 2679.76,976.988 2667.5,990C 2667.5,998 2667.5,1006 2667.5,1014C 2677.83,1013.25 2688.17,1012.08 2698.5,1010.5C 2701.55,1010.18 2703.21,1011.52 2703.5,1014.5C 2701.17,1034.14 2699.17,1053.8 2697.5,1073.5 Z"/></g>
<g><path style="opacity:1" fill="#f49979" d="M 2661.5,298.5 C 2663.35,299.089 2665.19,299.756 2667,300.5C 2670.02,300.12 2673.02,299.787 2676,299.5C 2678.04,301.521 2680.04,301.854 2682,300.5C 2683.33,301.167 2684.67,301.833 2686,302.5C 2693.74,302.276 2700.57,304.776 2706.5,310C 2717.43,322.492 2723.43,336.826 2724.5,353C 2724.38,379.077 2724.38,404.411 2724.5,429C 2722.94,436.873 2722.61,443.873 2723.5,450C 2722.83,454 2722.17,458 2721.5,462C 2721.83,463.667 2722.17,465.333 2722.5,467C 2721.83,470.667 2721.17,474.333 2720.5,478C 2720.83,479.667 2721.17,481.333 2721.5,483C 2720.98,491.129 2719.98,499.129 2718.5,507C 2718.83,508 2719.17,509 2719.5,510C 2718.83,513 2718.17,516 2717.5,519C 2717.83,520 2718.17,521 2718.5,522C 2717.83,525 2717.17,528 2716.5,531C 2716.62,532.268 2716.95,533.602 2717.5,535C 2715.98,538.955 2715.64,542.622 2716.5,546C 2714.99,549.339 2714.65,552.339 2715.5,555C 2714.17,564 2712.83,573 2711.5,582C 2711.62,583.268 2711.95,584.602 2712.5,586C 2710.82,588.972 2710.49,591.639 2711.5,594C 2710.5,599 2709.5,604 2708.5,609C 2708.62,610.268 2708.95,611.602 2709.5,613C 2708.83,614.667 2708.17,616.333 2707.5,618C 2708.12,635.719 2699.29,644.886 2681,645.5C 2644.39,652.401 2620.56,637.567 2609.5,601C 2609.74,590.913 2610.41,579.579 2611.5,567C 2611.31,561.267 2610.98,555.934 2610.5,551C 2611.17,544.333 2611.83,537.667 2612.5,531C 2611.68,525.761 2611.34,520.761 2611.5,516C 2612.17,510.667 2612.83,505.333 2613.5,500C 2612.5,488.968 2612.83,476.634 2614.5,463C 2613.77,457.819 2613.44,452.486 2613.5,447C 2614.17,443.333 2614.83,439.667 2615.5,436C 2615.6,430.543 2615.26,424.877 2614.5,419C 2615.17,414.333 2615.83,409.667 2616.5,405C 2616.17,402.667 2615.83,400.333 2615.5,398C 2616.91,388.249 2618.58,378.249 2620.5,368C 2620.17,367.667 2619.83,367.333 2619.5,367C 2620.17,365.333 2620.83,363.667 2621.5,362C 2621.17,361.667 2620.83,361.333 2620.5,361C 2622.18,358.028 2622.51,355.361 2621.5,353C 2622.5,350 2623.5,347 2624.5,344C 2623.82,341.658 2624.16,339.324 2625.5,337C 2624.49,334.639 2624.82,331.972 2626.5,329C 2626.38,318.172 2630.88,309.338 2640,302.5C 2640.33,302.833 2640.67,303.167 2641,303.5C 2644.67,301.319 2648.34,299.985 2652,299.5C 2654.18,299.428 2656.18,299.762 2658,300.5C 2659.3,299.915 2660.47,299.249 2661.5,298.5 Z"/></g>
<g><path style="opacity:1" fill="#f49979" d="M 2542.5,299.5 C 2563.89,303.58 2581.72,315.246 2596,334.5C 2598.66,340.508 2600.82,346.342 2602.5,352C 2598.86,372.292 2596.2,393.292 2594.5,415C 2595.36,419.057 2595.69,423.39 2595.5,428C 2594.83,432.667 2594.17,437.333 2593.5,442C 2594.28,445.866 2594.61,449.866 2594.5,454C 2593.83,459.667 2593.17,465.333 2592.5,471C 2593.36,476.396 2593.69,482.062 2593.5,488C 2592.83,493.333 2592.17,498.667 2591.5,504C 2591.8,510.306 2592.13,516.972 2592.5,524C 2591.83,529.333 2591.17,534.667 2590.5,540C 2591.36,545.396 2591.69,551.062 2591.5,557C 2589.83,570.664 2589.5,583.331 2590.5,595C 2589.02,617.458 2577.85,632.958 2557,641.5C 2540.02,641.463 2522.52,638.296 2504.5,632C 2498.84,629.507 2493.51,626.507 2488.5,623C 2485.35,619.848 2483.01,616.181 2481.5,612C 2482.29,604.938 2482.29,598.604 2481.5,593C 2482.68,583.265 2483.68,573.265 2484.5,563C 2484.51,561.417 2484.17,559.751 2483.5,558C 2484.17,554 2484.83,550 2485.5,546C 2484.76,544.176 2484.43,542.176 2484.5,540C 2485.17,536 2485.83,532 2486.5,528C 2486.17,525.667 2485.83,523.333 2485.5,521C 2486.6,511.302 2487.6,501.302 2488.5,491C 2488.17,488.667 2487.83,486.333 2487.5,484C 2489.7,474.234 2489.7,464.567 2487.5,455C 2487.43,452.824 2487.76,450.824 2488.5,449C 2487.83,446.333 2487.17,443.667 2486.5,441C 2487.35,438.339 2487.01,435.339 2485.5,432C 2486.85,430.043 2486.52,428.043 2484.5,426C 2485.17,424.249 2485.51,422.583 2485.5,421C 2483.99,417.661 2483.65,414.661 2484.5,412C 2483.04,403.02 2481.7,394.02 2480.5,385C 2480.29,380.449 2480.63,375.783 2481.5,371C 2479.97,364.76 2478.97,358.427 2478.5,352C 2478.06,337.211 2484.4,324.878 2497.5,315C 2508.23,308.376 2519.4,303.543 2531,300.5C 2532,300.833 2533,301.167 2534,301.5C 2536.94,300.872 2539.77,300.205 2542.5,299.5 Z"/></g>
<g><path style="opacity:1" fill="#f49979" d="M 2385.5,336.5 C 2410.94,336.884 2433.77,346.551 2454,365.5C 2459.17,371.421 2461.01,377.921 2459.5,385C 2460.17,387.667 2460.83,390.333 2461.5,393C 2461.17,393.333 2460.83,393.667 2460.5,394C 2461.17,397 2461.83,400 2462.5,403C 2462.5,406.667 2462.5,410.333 2462.5,414C 2464.92,429.562 2466.92,444.895 2468.5,460C 2468.22,466.724 2468.22,473.391 2468.5,480C 2466.89,488.79 2466.56,496.79 2467.5,504C 2465.89,511.536 2465.56,518.203 2466.5,524C 2465.83,527.667 2465.17,531.333 2464.5,535C 2464.41,538.238 2464.74,541.572 2465.5,545C 2464.95,554.45 2463.95,564.117 2462.5,574C 2463.28,576.522 2463.61,579.189 2463.5,582C 2462.95,589.927 2461.95,597.927 2460.5,606C 2460.63,621.021 2453.96,632.688 2440.5,641C 2421.29,651.436 2404.12,647.936 2389,630.5C 2384.91,626.137 2382.41,621.304 2381.5,616C 2380.79,614.09 2379.79,612.09 2378.5,610C 2378.83,609.667 2379.17,609.333 2379.5,609C 2378.85,604.837 2377.85,600.504 2376.5,596C 2376.91,581.635 2377.24,566.968 2377.5,552C 2373.49,525.213 2365.49,498.546 2353.5,472C 2353.83,471.667 2354.17,471.333 2354.5,471C 2345.03,448.379 2338.7,425.713 2335.5,403C 2335.5,399.667 2335.5,396.333 2335.5,393C 2336.17,391.333 2336.83,389.667 2337.5,388C 2334.83,387.333 2334.83,386.667 2337.5,386C 2337.17,385.667 2336.83,385.333 2336.5,385C 2337.87,382.275 2338.87,379.609 2339.5,377C 2339.17,376.667 2338.83,376.333 2338.5,376C 2347.87,353.566 2363.54,340.399 2385.5,336.5 Z"/></g>
<g><path style="opacity:1" fill="#f49979" d="M 2279.5,422.5 C 2301.46,423.141 2316.8,434.308 2325.5,456C 2337.07,483.709 2346.73,511.709 2354.5,540C 2353.9,541.628 2354.24,543.295 2355.5,545C 2355.17,545.333 2354.83,545.667 2354.5,546C 2355.17,547.667 2355.83,549.333 2356.5,551C 2356.17,551.333 2355.83,551.667 2355.5,552C 2356.17,555.333 2356.83,558.667 2357.5,562C 2357.79,574.663 2357.46,588.33 2356.5,603C 2357.75,617.484 2363.08,630.151 2372.5,641C 2367.46,645.953 2361.62,648.453 2355,648.5C 2326.58,654.03 2306.42,643.197 2294.5,616C 2292.81,612.789 2291.14,610.122 2289.5,608C 2282.05,580.314 2272.72,552.314 2261.5,524C 2261.83,523.667 2262.17,523.333 2262.5,523C 2261.17,519.333 2259.83,515.667 2258.5,512C 2258.96,511.586 2259.29,511.086 2259.5,510.5C 2259.27,506.778 2257.77,503.778 2255,501.5C 2252.67,501.5 2250.33,501.5 2248,501.5C 2243.25,502.615 2239.75,505.282 2237.5,509.5C 2238.71,517.336 2240.54,525.336 2243,533.5C 2253.07,561.695 2262.73,590.029 2272,618.5C 2278.24,631.985 2286.74,643.151 2297.5,652C 2305.19,656.687 2313.03,659.187 2321,659.5C 2322.33,660.167 2323.67,660.833 2325,661.5C 2333.13,660.418 2341.13,660.418 2349,661.5C 2350,660.833 2351,660.167 2352,659.5C 2369.41,674.979 2387.75,684.979 2407,689.5C 2409.83,691.13 2412.83,692.464 2416,693.5C 2417.15,692.542 2418.15,692.875 2419,694.5C 2419.33,694.167 2419.67,693.833 2420,693.5C 2423.5,694.785 2427.33,696.118 2431.5,697.5C 2433.06,696.653 2434.56,696.986 2436,698.5C 2439.86,698.978 2443.53,698.978 2447,698.5C 2448,699.167 2449,699.833 2450,700.5C 2458.47,699.554 2466.81,699.554 2475,700.5C 2476.67,699.833 2478.33,699.167 2480,698.5C 2482.18,698.428 2484.18,698.762 2486,699.5C 2486.33,698.833 2486.67,698.167 2487,697.5C 2489.09,698.246 2491.09,698.579 2493,698.5C 2494.44,696.986 2495.94,696.653 2497.5,697.5C 2504.4,696.02 2511.24,694.354 2518,692.5C 2519.34,693.214 2520.68,692.88 2522,691.5C 2523.96,692.854 2525.96,692.521 2528,690.5C 2528.33,690.833 2528.67,691.167 2529,691.5C 2532.91,689.917 2536.91,688.584 2541,687.5C 2541.33,687.833 2541.67,688.167 2542,688.5C 2545.49,686.689 2548.82,685.356 2552,684.5C 2553.97,684.626 2556.14,684.792 2558.5,685C 2556.75,685.471 2555.09,686.138 2553.5,687C 2503.68,731.755 2471.68,786.088 2457.5,850C 2458.04,851.462 2458.04,853.128 2457.5,855C 2457.79,857.105 2458.62,858.938 2460,860.5C 2461.02,859.366 2461.68,859.699 2462,861.5C 2464.33,861.5 2466.67,861.5 2469,861.5C 2472.14,860.597 2474.8,858.93 2477,856.5C 2478.22,851.009 2479.39,845.843 2480.5,841C 2480.17,840.667 2479.83,840.333 2479.5,840C 2494.25,782.151 2525.08,732.651 2572,691.5C 2594.61,709.607 2615.44,729.607 2634.5,751.5C 2641.43,754.593 2647.26,753.593 2652,748.5C 2653.3,746.635 2653.63,744.635 2653,742.5C 2633.46,719.624 2611.96,698.79 2588.5,680C 2580.08,673.686 2570.91,669.852 2561,668.5C 2538.74,673.677 2516.74,678.677 2495,683.5C 2492,683.5 2489,683.5 2486,683.5C 2484,684.167 2482,684.833 2480,685.5C 2443.7,687.249 2409.2,677.249 2376.5,655.5C 2376.17,655.167 2375.83,654.833 2375.5,654.5C 2376.52,653.646 2377.36,652.646 2378,651.5C 2379.02,652.634 2379.68,652.301 2380,650.5C 2381.02,651.634 2381.68,651.301 2382,649.5C 2385.13,650.733 2388.47,652.4 2392,654.5C 2392.33,654.167 2392.67,653.833 2393,653.5C 2395.43,655.608 2398.1,656.275 2401,655.5C 2401.67,656.167 2402.33,656.833 2403,657.5C 2404.58,657.507 2406.25,657.174 2408,656.5C 2409,657.167 2410,657.833 2411,658.5C 2412.33,657.167 2413.67,657.167 2415,658.5C 2416,657.833 2417,657.167 2418,656.5C 2420.88,657.397 2423.88,657.397 2427,656.5C 2429.04,654.479 2431.04,654.146 2433,655.5C 2434.95,653.819 2436.95,653.152 2439,653.5C 2440.1,651.606 2441.43,650.939 2443,651.5C 2443.32,649.699 2443.98,649.366 2445,650.5C 2447.33,648.833 2449.67,647.167 2452,645.5C 2452.33,645.833 2452.67,646.167 2453,646.5C 2458.96,642.553 2464.62,637.553 2470,631.5C 2479.81,639.758 2490.48,644.758 2502,646.5C 2502.85,648.125 2503.85,648.458 2505,647.5C 2507.6,649.32 2510.27,649.986 2513,649.5C 2518.23,651.242 2523.56,652.576 2529,653.5C 2529.33,653.167 2529.67,652.833 2530,652.5C 2533.13,653.206 2536.3,653.873 2539.5,654.5C 2544.55,653.976 2549.38,653.976 2554,654.5C 2554.49,652.396 2555.66,652.062 2557.5,653.5C 2561.37,652.997 2564.87,651.663 2568,649.5C 2568.33,649.833 2568.67,650.167 2569,650.5C 2571.62,649.19 2573.95,647.524 2576,645.5C 2577,645.5 2578,645.5 2579,645.5C 2579.91,644.672 2580.58,643.672 2581,642.5C 2582.56,643.345 2583.56,642.679 2584,640.5C 2584.33,640.833 2584.67,641.167 2585,641.5C 2585.33,640.5 2585.67,639.5 2586,638.5C 2586.33,638.833 2586.67,639.167 2587,639.5C 2587.44,637.321 2588.44,636.655 2590,637.5C 2592.05,634.285 2594.72,630.952 2598,627.5C 2609.88,647.716 2626.55,657.382 2648,656.5C 2649.33,657.167 2650.67,657.833 2652,658.5C 2655.11,658.047 2658.11,658.047 2661,658.5C 2665.33,657.833 2669.67,657.167 2674,656.5C 2675.91,656.421 2677.91,656.754 2680,657.5C 2682.04,655.479 2684.04,655.146 2686,656.5C 2686.35,654.193 2687.35,653.859 2689,655.5C 2695.18,653.516 2700.68,651.85 2705.5,650.5C 2716.39,662.27 2724.23,675.937 2729,691.5C 2731.73,701.204 2733.9,710.704 2735.5,720C 2735.43,730.942 2735.43,741.609 2735.5,752C 2734.56,757.633 2733.56,762.966 2732.5,768C 2732.83,768.333 2733.17,768.667 2733.5,769C 2731.26,779.135 2728.59,789.468 2725.5,800C 2710.27,848.976 2692.77,898.142 2673,947.5C 2667.88,959.083 2661.71,970.083 2654.5,980.5C 2650.44,985.11 2645.94,987.444 2641,987.5C 2639,988.167 2637,988.833 2635,989.5C 2628.85,989.978 2623.19,989.978 2618,989.5C 2611.71,989.895 2606.87,992.728 2603.5,998C 2603.32,999.66 2603.99,1001.33 2605.5,1003C 2607.92,1004.06 2610.42,1004.9 2613,1005.5C 2615.65,1004.19 2618.32,1004.19 2621,1005.5C 2623,1004.83 2625,1004.17 2627,1003.5C 2628.75,1004.17 2630.42,1004.51 2632,1004.5C 2634.97,1002.82 2637.64,1002.49 2640,1003.5C 2642.09,1002.21 2644.09,1001.21 2646,1000.5C 2647.45,1005.98 2647.95,1011.65 2647.5,1017.5C 2620.18,1020.37 2592.85,1023.2 2565.5,1026C 2519.5,1030.61 2473.5,1030.61 2427.5,1026C 2392.11,1022.57 2356.78,1018.73 2321.5,1014.5C 2320.6,1009.56 2320.27,1004.73 2320.5,1000C 2321.1,998.175 2321.77,996.341 2322.5,994.5C 2330.88,999.005 2337.71,998.005 2343,991.5C 2343.9,988.534 2343.4,985.867 2341.5,983.5C 2320.18,976.643 2304.85,963.476 2295.5,944C 2292.49,940.444 2290.49,936.777 2289.5,933C 2286.63,928.293 2284.63,923.627 2283.5,919C 2248.64,823.809 2221.31,727.809 2201.5,631C 2201.83,630.667 2202.17,630.333 2202.5,630C 2200.83,622.333 2199.17,614.667 2197.5,607C 2197.5,604.333 2197.5,601.667 2197.5,599C 2196.83,597.667 2196.17,596.333 2195.5,595C 2196.46,591.939 2196.13,588.606 2194.5,585C 2195.51,582.639 2195.18,579.972 2193.5,577C 2193.83,576 2194.17,575 2194.5,574C 2193.83,571.333 2193.17,568.667 2192.5,566C 2193.46,562.939 2193.13,559.606 2191.5,556C 2191.14,541.619 2191.14,526.619 2191.5,511C 2193.42,498.073 2196.92,485.573 2202,473.5C 2203.98,469.886 2206.15,466.386 2208.5,463C 2208.17,462.667 2207.83,462.333 2207.5,462C 2208.61,460.43 2209.95,459.097 2211.5,458C 2211.17,457.667 2210.83,457.333 2210.5,457C 2215.96,452.193 2220.8,446.693 2225,440.5C 2225.33,440.833 2225.67,441.167 2226,441.5C 2228.2,439.312 2230.7,437.479 2233.5,436C 2240.41,433.602 2246.91,431.102 2253,428.5C 2254.67,428.5 2256.33,428.5 2258,428.5C 2259.55,426.854 2261.22,426.521 2263,427.5C 2265.76,424.998 2268.43,424.332 2271,425.5C 2273.8,424.98 2276.64,423.98 2279.5,422.5 Z"/></g>
</svg>
